# Blender 5.2.0 LTS
# www.blender.org
mtllib ArmorHelm.mtl
o ArmorHelmet.001
v -0.572111 -0.704712 0.547466
v -0.759132 -0.063073 0.705747
v -0.575099 -0.853603 -0.573981
v -0.637794 -0.318991 -0.508401
v -0.497914 -0.725156 0.362557
v -0.779156 -0.018105 0.426305
v -0.746100 -0.062009 -0.161309
v -0.612242 -0.722889 -0.101252
v -0.708110 -0.437213 0.679058
v -0.611187 -0.818676 -0.584384
v -0.695160 -0.504487 0.410398
v -0.707522 -0.573629 -0.135706
v -0.500999 -0.345053 -0.589833
v -0.583002 0.191349 0.752414
v -0.330514 -0.514600 0.429748
v -0.449733 -0.226364 -0.126173
v -0.503370 -0.294199 0.862480
v -0.489642 0.135841 -0.599236
v -0.435500 -0.705662 0.650369
v -0.646700 0.438102 0.367319
v -0.600652 0.433725 -0.207705
v -0.383466 -0.035808 -0.775865
v 0.000000 0.424317 -0.775109
v 0.000000 -0.829011 0.681836
v 0.000000 0.731872 0.407542
v 0.000000 0.716035 -0.230676
v 0.000000 -0.277774 -0.912002
v 0.000000 -0.467307 -0.800938
v 0.000000 0.339602 0.842037
v 0.000000 0.126934 0.423432
v 0.000000 0.495221 -0.181643
v 0.000000 -0.284105 1.000000
v 0.000000 0.191077 -0.715093
v 0.000000 0.160379 -0.999999
v -0.268846 -0.184029 -0.788295
v -0.297956 -0.109283 -0.818598
v -0.844288 0.181641 0.293916
v -0.814369 0.168911 -0.089988
v -0.799978 0.504351 0.236870
v -0.764650 0.498691 -0.120531
v -0.941318 0.497300 0.137863
v -0.899815 0.480896 -0.056399
v -0.899126 0.816709 0.076632
v -0.879263 0.768832 -0.072156
v -0.905727 0.898330 -0.014664
v -0.946231 0.549741 0.036465
v -0.907849 0.707238 -0.057195
v -0.945039 0.735641 0.078817
v -0.934143 0.764786 0.009644
v -0.524227 -0.735639 0.477641
v -0.748725 -0.226737 0.718800
v -0.698485 -0.206426 -0.367980
v -0.565108 -0.880415 -0.630297
v -0.541876 -0.602377 -0.598967
v -0.718329 0.059893 0.732612
v -0.549372 -0.691427 0.165492
v -0.770660 -0.040380 0.612845
v -0.421710 -0.680803 0.391572
v -0.598616 -0.660888 0.378516
v -0.773651 -0.085958 0.141500
v -0.613227 -0.848167 -0.389505
v -0.556494 -0.532801 -0.100718
v -0.663076 -0.722263 -0.118496
v -0.638896 -0.613499 0.601579
v -0.605165 -0.583170 -0.580381
v -0.752566 -0.279227 0.423621
v -0.734997 -0.343861 -0.142172
v -0.704389 -0.499908 0.163001
v -0.708708 -0.489147 0.571171
v -0.646404 -0.359400 0.775409
v -0.670364 -0.761346 -0.420365
v -0.395357 -0.211020 -0.697136
v -0.326532 0.279624 0.790130
v -0.183144 -0.227386 0.437307
v -0.252494 0.116431 -0.169177
v -0.275447 -0.274630 0.935445
v -0.583169 -0.117498 -0.552735
v -0.536402 -0.704607 0.590899
v -0.755673 0.218390 0.467905
v -0.701327 0.188189 -0.256254
v -0.417950 -0.014827 -0.729827
v -0.367929 -0.670895 0.560481
v -0.374140 -0.335987 0.184408
v -0.496140 -0.251417 -0.417173
v -0.475562 -0.553744 0.771050
v -0.541639 0.300790 -0.424976
v -0.595932 0.519266 0.074267
v -0.609425 0.340750 0.590912
v -0.543264 -0.029141 0.852538
v -0.274256 0.294253 -0.682586
v -0.244324 -0.751902 0.677830
v -0.347547 0.590886 0.375908
v -0.322734 0.582636 -0.215730
v -0.221800 -0.154057 -0.847936
v 0.000000 0.067280 0.979339
v 0.000000 0.572591 0.652514
v 0.000000 0.776822 0.099331
v 0.000000 0.578329 -0.533005
v 0.000000 -0.694301 0.862160
v 0.000000 -0.044126 -0.978857
v 0.000000 -0.432007 0.565476
v 0.000000 0.430245 0.155928
v 0.000000 0.419969 -0.498177
v 0.000000 -0.468641 -0.842893
v 0.000000 -0.179577 -0.788577
v 0.000000 0.299763 -0.932906
v -0.196510 -0.336241 -0.817746
v -0.343580 -0.075059 -0.799715
v -0.171306 -0.016667 -0.766779
v -0.839179 0.116964 0.110221
v -0.829208 0.347129 0.331792
v -0.784063 0.335358 -0.172403
v -0.773946 0.566324 0.049193
v -0.748106 0.421479 0.289620
v -0.803504 0.081380 0.347986
v -0.775199 0.069123 -0.102774
v -0.708170 0.426320 -0.138480
v -0.925050 0.500037 0.000979
v -0.924984 0.782321 0.085075
v -0.895612 0.736578 -0.072620
v -0.899461 0.885247 0.014453
v -0.867836 0.349810 -0.073879
v -0.835564 0.656149 -0.095440
v -0.903276 0.368372 0.200700
v -0.862416 0.687572 0.143448
v -0.893123 0.852594 -0.034250
v -0.948767 0.507545 0.080155
v -0.946666 0.647369 0.026165
v -0.900192 0.599271 -0.069771
v -0.946941 0.619868 0.118398
v -0.919690 0.867301 -0.008245
v -0.921394 0.748310 -0.024843
v -0.945465 0.763544 0.042667
v -0.692308 -0.506931 -0.395138
v -0.687737 -0.129837 0.793392
v -0.737473 0.166650 0.605436
v -0.785135 0.252276 0.398138
v -0.759714 -0.270607 0.606919
v -0.659353 0.068691 -0.388404
v -0.748613 -0.283923 0.154267
v -0.630761 -0.652691 0.163354
v -0.617435 -0.651836 0.510901
v -0.598888 -0.568984 0.689736
v -0.637438 -0.898330 -0.418921
v -0.458406 -0.736257 0.509968
v -0.476324 -0.581729 0.177353
v -0.583340 -0.588424 -0.382631
v -0.262986 -0.603700 0.825425
v -0.303099 0.457999 -0.476007
v -0.335814 0.632306 0.084631
v -0.342664 0.468961 0.610643
v -0.299888 0.032238 0.914197
v -0.206220 -0.562214 0.575748
v -0.207107 0.017294 0.173453
v -0.287425 0.051663 -0.536166
v -0.410679 -0.388540 -0.742918
v -0.113980 -0.187171 -0.826555
v -0.854897 0.530325 -0.120910
v -0.799190 0.012852 0.131280
v -0.738097 0.247023 -0.200204
v -0.714822 0.489359 0.067088
v -0.912586 0.832826 -0.035296
v -0.901984 0.333675 0.066865
v -0.850745 0.761944 0.010280
v -0.898358 0.562372 0.197954
v -0.926850 0.864624 0.023145
v -0.927384 0.634127 -0.018465
v -0.957656 0.642794 0.066185
v -0.223750 0.087256 -0.837353
v 0.572111 -0.704712 0.547466
v 0.759132 -0.063073 0.705747
v 0.575099 -0.853603 -0.573981
v 0.637794 -0.318991 -0.508401
v 0.497914 -0.725156 0.362557
v 0.779156 -0.018105 0.426305
v 0.746100 -0.062009 -0.161309
v 0.612242 -0.722889 -0.101252
v 0.708110 -0.437213 0.679058
v 0.611187 -0.818676 -0.584384
v 0.695160 -0.504487 0.410398
v 0.707522 -0.573629 -0.135706
v 0.500999 -0.345053 -0.589833
v 0.583002 0.191349 0.752414
v 0.330514 -0.514600 0.429748
v 0.449733 -0.226364 -0.126173
v 0.503370 -0.294199 0.862480
v 0.489642 0.135841 -0.599236
v 0.435500 -0.705662 0.650369
v 0.646700 0.438102 0.367319
v 0.600652 0.433725 -0.207705
v 0.383466 -0.035808 -0.775865
v 0.000000 0.424317 -0.775109
v 0.000000 -0.829011 0.681836
v 0.000000 0.731872 0.407542
v 0.000000 0.716035 -0.230676
v 0.000000 -0.277774 -0.912002
v 0.000000 -0.467307 -0.800938
v 0.000000 0.339602 0.842037
v 0.000000 0.126934 0.423432
v 0.000000 0.495221 -0.181643
v 0.000000 -0.284105 1.000000
v 0.000000 0.191077 -0.715093
v 0.000000 0.160379 -0.999999
v 0.268846 -0.184029 -0.788295
v 0.297956 -0.109283 -0.818598
v 0.844288 0.181641 0.293916
v 0.814369 0.168911 -0.089988
v 0.799978 0.504351 0.236870
v 0.764650 0.498691 -0.120531
v 0.941318 0.497300 0.137863
v 0.899815 0.480896 -0.056399
v 0.899126 0.816709 0.076632
v 0.879263 0.768832 -0.072156
v 0.905727 0.898330 -0.014664
v 0.946231 0.549741 0.036465
v 0.907849 0.707238 -0.057195
v 0.945039 0.735641 0.078817
v 0.934143 0.764786 0.009644
v 0.524227 -0.735639 0.477641
v 0.748725 -0.226737 0.718800
v 0.698485 -0.206426 -0.367980
v 0.565108 -0.880415 -0.630297
v 0.541876 -0.602377 -0.598967
v 0.718329 0.059893 0.732612
v 0.549372 -0.691427 0.165492
v 0.770660 -0.040380 0.612845
v 0.421710 -0.680803 0.391572
v 0.598616 -0.660888 0.378516
v 0.773651 -0.085958 0.141500
v 0.613227 -0.848167 -0.389505
v 0.556494 -0.532801 -0.100718
v 0.663076 -0.722263 -0.118496
v 0.638896 -0.613499 0.601579
v 0.605165 -0.583170 -0.580381
v 0.752566 -0.279227 0.423621
v 0.734997 -0.343861 -0.142172
v 0.704389 -0.499908 0.163001
v 0.708708 -0.489147 0.571171
v 0.646404 -0.359400 0.775409
v 0.670364 -0.761346 -0.420365
v 0.395357 -0.211020 -0.697136
v 0.326532 0.279624 0.790130
v 0.183144 -0.227386 0.437307
v 0.252494 0.116431 -0.169177
v 0.275447 -0.274630 0.935445
v 0.583169 -0.117498 -0.552735
v 0.536402 -0.704607 0.590899
v 0.755673 0.218390 0.467905
v 0.701327 0.188189 -0.256254
v 0.417950 -0.014827 -0.729827
v 0.367929 -0.670895 0.560481
v 0.374140 -0.335987 0.184408
v 0.496140 -0.251417 -0.417173
v 0.475562 -0.553744 0.771050
v 0.541639 0.300790 -0.424976
v 0.595932 0.519266 0.074267
v 0.609425 0.340750 0.590912
v 0.543264 -0.029141 0.852538
v 0.274256 0.294253 -0.682586
v 0.244324 -0.751902 0.677830
v 0.347547 0.590886 0.375908
v 0.322734 0.582636 -0.215730
v 0.221800 -0.154057 -0.847936
v 0.000000 0.067280 0.979339
v 0.000000 0.572591 0.652514
v 0.000000 0.776822 0.099331
v 0.000000 0.578329 -0.533005
v 0.000000 -0.694301 0.862160
v 0.000000 -0.044126 -0.978857
v 0.000000 -0.432007 0.565476
v 0.000000 0.430245 0.155928
v 0.000000 0.419969 -0.498177
v 0.000000 -0.468641 -0.842893
v 0.000000 -0.179577 -0.788577
v 0.000000 0.299763 -0.932906
v 0.196510 -0.336241 -0.817746
v 0.343580 -0.075059 -0.799715
v 0.171306 -0.016667 -0.766779
v 0.839179 0.116964 0.110221
v 0.829208 0.347129 0.331792
v 0.784063 0.335358 -0.172403
v 0.773946 0.566324 0.049193
v 0.748106 0.421479 0.289620
v 0.803504 0.081380 0.347986
v 0.775199 0.069123 -0.102774
v 0.708170 0.426320 -0.138480
v 0.925050 0.500037 0.000979
v 0.924984 0.782321 0.085075
v 0.895612 0.736578 -0.072620
v 0.899461 0.885247 0.014453
v 0.867836 0.349810 -0.073879
v 0.835564 0.656149 -0.095440
v 0.903276 0.368372 0.200700
v 0.862416 0.687572 0.143448
v 0.893123 0.852594 -0.034250
v 0.948767 0.507545 0.080155
v 0.946666 0.647369 0.026165
v 0.900192 0.599271 -0.069771
v 0.946941 0.619868 0.118398
v 0.919690 0.867301 -0.008245
v 0.921394 0.748310 -0.024843
v 0.945465 0.763544 0.042667
v 0.692308 -0.506931 -0.395138
v 0.687737 -0.129837 0.793392
v 0.737473 0.166650 0.605436
v 0.785135 0.252276 0.398138
v 0.759714 -0.270607 0.606919
v 0.659353 0.068691 -0.388404
v 0.748613 -0.283923 0.154267
v 0.630761 -0.652691 0.163354
v 0.617435 -0.651836 0.510901
v 0.598888 -0.568984 0.689736
v 0.637438 -0.898330 -0.418921
v 0.458406 -0.736257 0.509968
v 0.476324 -0.581729 0.177353
v 0.583340 -0.588424 -0.382631
v 0.262986 -0.603700 0.825425
v 0.303099 0.457999 -0.476007
v 0.335814 0.632306 0.084631
v 0.342664 0.468961 0.610643
v 0.299888 0.032238 0.914197
v 0.206220 -0.562214 0.575748
v 0.207107 0.017294 0.173453
v 0.287425 0.051663 -0.536166
v 0.410679 -0.388540 -0.742918
v 0.113980 -0.187171 -0.826555
v 0.854897 0.530325 -0.120910
v 0.799190 0.012852 0.131280
v 0.738097 0.247023 -0.200204
v 0.714822 0.489359 0.067088
v 0.912586 0.832826 -0.035296
v 0.901984 0.333675 0.066865
v 0.850745 0.761944 0.010280
v 0.898358 0.562372 0.197954
v 0.926850 0.864624 0.023145
v 0.927384 0.634127 -0.018465
v 0.957656 0.642794 0.066185
v 0.223750 0.087256 -0.837353
vn -0.9775 -0.2097 0.0244
vn -0.9929 -0.0872 -0.0814
vn -0.9648 -0.0372 -0.2605
vn -0.9703 -0.1663 -0.1756
vn -0.9744 -0.0438 -0.2203
vn -0.9393 0.0409 -0.3408
vn -0.8291 0.0561 -0.5563
vn -0.8059 0.0269 -0.5915
vn -0.8568 -0.1174 -0.5021
vn -0.3482 -0.1774 0.9205
vn -0.3639 0.1664 0.9164
vn -0.5881 0.0123 0.8087
vn -0.5397 -0.2771 0.7950
vn -0.4465 0.4849 0.7520
vn -0.7348 0.2907 0.6128
vn -0.9153 0.0586 0.3986
vn -0.7018 -0.1463 0.6972
vn -0.6368 -0.3886 0.6660
vn -0.5024 0.7828 0.3672
vn -0.7116 0.5569 0.4285
vn -0.6819 0.5448 0.4880
vn -0.5505 0.6600 0.5112
vn -0.9666 0.0613 0.2487
vn -0.9951 -0.0523 0.0840
vn -0.9909 0.0535 0.1232
vn -0.9779 0.1432 0.1524
vn -0.8904 -0.0239 0.4545
vn -0.9616 -0.1481 0.2311
vn -0.5960 0.5422 0.5923
vn -0.0531 0.5359 0.8426
vn -0.0622 0.4896 0.8697
vn -0.0547 0.5280 0.8475
vn -0.8659 -0.0145 0.4999
vn -0.9359 -0.1798 0.3029
vn -0.9448 -0.2944 0.1440
vn -0.9848 -0.1170 0.1283
vn -0.9854 -0.1582 0.0632
vn -0.9283 -0.3690 0.0451
vn -0.9866 -0.1628 -0.0093
vn -0.9290 -0.3701 -0.0084
vn -0.6902 0.3338 -0.6420
vn -0.7931 0.1135 -0.5985
vn -0.8668 0.1963 -0.4584
vn -0.6693 0.5056 -0.5445
vn -0.8388 0.1999 -0.5063
vn -0.5203 0.7098 -0.4748
vn -0.9899 -0.1414 -0.0114
vn -0.9521 -0.3008 0.0550
vn -0.9880 -0.1504 -0.0362
vn -0.5571 -0.8288 -0.0512
vn -0.7242 -0.6891 -0.0269
vn -0.3980 -0.9087 0.1257
vn -0.4182 -0.9026 0.1022
vn -0.9014 -0.4201 0.1052
vn -0.9495 -0.2993 0.0940
vn -0.3081 -0.9247 0.2238
vn -0.7464 -0.6645 -0.0357
vn -0.8550 -0.5116 0.0853
vn -0.7896 -0.6124 -0.0376
vn -0.6547 -0.7496 -0.0977
vn -0.3359 -0.6567 0.6752
vn -0.3484 -0.4919 0.7979
vn -0.5001 -0.5262 0.6878
vn -0.4613 -0.6558 0.5976
vn -0.5627 -0.5983 0.5705
vn -0.5318 -0.6605 0.5300
vn 0.2827 -0.8490 0.4464
vn -0.9462 -0.2858 -0.1514
vn -0.9103 -0.2976 -0.2877
vn 0.9608 -0.2291 0.1560
vn 0.8774 -0.4201 0.2316
vn 0.8803 -0.2115 0.4247
vn 0.9168 -0.2560 0.3065
vn 0.3545 -0.9205 -0.1643
vn 0.8015 -0.5024 -0.3243
vn 0.7583 -0.4305 -0.4895
vn 0.5445 -0.6299 -0.5538
vn 0.8066 -0.5467 -0.2248
vn 0.0457 -0.9773 0.2070
vn 0.2232 -0.9594 0.1727
vn 0.0110 -0.9770 0.2130
vn -0.1848 -0.9527 0.2412
vn 0.9585 -0.2682 -0.0969
vn 0.9364 -0.3074 -0.1691
vn 0.8435 -0.4142 -0.3419
vn 0.8244 -0.4756 -0.3070
vn 0.8873 -0.4224 -0.1852
vn 0.8429 -0.3898 -0.3709
vn 0.7135 -0.5917 -0.3751
vn 0.9258 -0.1494 0.3474
vn 0.9775 -0.1996 0.0679
vn 0.9027 -0.2772 0.3292
vn 0.9124 -0.4043 0.0637
vn -0.2915 -0.7324 0.6153
vn -0.2810 -0.5137 0.8106
vn -0.2944 -0.7053 0.6449
vn -0.2315 -0.3128 0.9212
vn -0.2307 -0.1321 0.9640
vn -0.2566 -0.1362 0.9569
vn -0.5226 0.6164 -0.5890
vn -0.5498 0.5515 -0.6273
vn -0.4742 0.7205 -0.5059
vn -0.4176 0.7779 -0.4695
vn -0.4235 0.8497 -0.3141
vn -0.3863 0.8786 -0.2807
vn -0.4120 0.9107 -0.0283
vn -0.3908 0.9203 -0.0173
vn -0.3618 0.9316 -0.0331
vn -0.3991 0.8688 0.2932
vn -0.3713 0.8786 0.3002
vn -0.3447 0.7358 0.5829
vn -0.3042 0.7361 0.6047
vn -0.2827 0.5324 0.7979
vn -0.2450 0.5376 0.8068
vn -0.2296 0.2523 0.9400
vn -0.2580 0.2324 0.9378
vn 0.6102 -0.3810 -0.6946
vn 0.3094 -0.4424 -0.8417
vn 0.3074 -0.2921 -0.9056
vn 0.2189 -0.3139 -0.9239
vn 0.0283 -0.3504 -0.9362
vn 0.1145 -0.5231 -0.8446
vn 0.2061 -0.6903 -0.6936
vn 0.8422 -0.5302 -0.0982
vn 0.8208 -0.4473 -0.3553
vn 0.8352 -0.5478 -0.0487
vn 0.8359 -0.4783 -0.2692
vn 0.7814 -0.4165 -0.4647
vn 0.7334 -0.3731 0.5682
vn 0.7714 -0.5707 0.2816
vn 0.6381 -0.5384 0.5504
vn 0.6274 -0.5553 0.5459
vn 0.6150 -0.5739 0.5407
vn 0.7653 -0.5986 0.2368
vn -0.6178 0.1358 -0.7745
vn -0.5241 0.0591 -0.8496
vn -0.6038 -0.0248 -0.7968
vn -0.6689 0.1755 -0.7223
vn -0.3791 -0.0197 -0.9251
vn -0.3931 -0.1144 -0.9123
vn -0.3735 -0.1883 -0.9083
vn -0.3147 -0.2366 -0.9192
vn 0.0231 0.0259 0.9994
vn 0.1470 -0.0380 0.9884
vn 0.6831 -0.1416 0.7165
vn 0.1450 0.0272 0.9891
vn 0.3389 -0.1495 0.9289
vn -0.6655 0.0355 -0.7455
vn -0.1143 -0.2489 0.9618
vn -0.0159 -0.2298 0.9731
vn -0.0027 -0.1288 0.9917
vn -0.1393 -0.1226 0.9826
vn 0.0827 0.2600 -0.9621
vn 0.0620 0.2978 -0.9526
vn 0.0665 0.2399 -0.9685
vn -0.0828 0.1983 -0.9766
vn -0.8620 -0.2618 -0.4341
vn -0.8715 -0.1976 -0.4488
vn -0.7758 -0.0858 -0.6251
vn -0.7565 -0.1559 -0.6351
vn -0.8759 -0.1293 -0.4649
vn -0.8370 -0.0277 -0.5464
vn -0.8430 0.0174 -0.5376
vn -0.8425 0.0400 -0.5373
vn -0.3251 0.2703 -0.9062
vn -0.1837 0.2137 -0.9595
vn -0.9609 -0.2737 -0.0411
vn -0.9243 -0.1915 -0.3301
vn -0.9442 -0.3235 -0.0623
vn -0.5342 0.3625 -0.7637
vn -0.8052 -0.1328 -0.5779
vn 0.0569 0.3068 -0.9501
vn -0.2665 0.9634 -0.0272
vn -0.2831 0.9327 0.2235
vn -0.2314 0.9303 -0.2845
vn 0.7671 0.6363 0.0821
vn 0.7781 0.6027 -0.1767
vn 0.8302 0.5305 -0.1709
vn 0.8606 0.5051 0.0651
vn 0.7149 0.6302 0.3029
vn 0.7630 0.5736 0.2981
vn -0.4576 0.2989 -0.8374
vn -0.5208 0.3001 -0.7992
vn -0.9053 0.0433 -0.4226
vn -0.9234 0.0605 -0.3791
vn -0.9444 0.0670 -0.3219
vn -0.9488 0.0886 -0.3031
vn -0.5775 0.2997 -0.7594
vn -0.9591 -0.2634 -0.1036
vn -0.9467 -0.1342 0.2928
vn -0.9460 -0.0860 0.3126
vn -0.9851 -0.1626 -0.0552
vn -0.9512 -0.1008 -0.2918
vn -0.9317 -0.1596 -0.3264
vn 0.9220 0.3862 0.0275
vn 0.8668 0.4069 0.2882
vn 0.9108 0.3712 -0.1809
vn 0.8942 0.3492 -0.2800
vn 0.9216 0.3529 -0.1615
vn 0.9284 0.3530 -0.1159
vn 0.9301 0.3669 0.0144
vn 0.8687 0.3744 0.3242
vn -0.8276 0.0637 0.5576
vn -0.1663 0.4327 0.8860
vn -0.0798 0.4718 0.8781
vn -0.3252 0.5455 0.7724
vn -0.2343 0.4656 0.8534
vn -0.8957 0.1911 0.4016
vn -0.9072 0.0988 0.4090
vn -0.8773 0.2600 0.4035
vn -0.7481 0.6448 0.1569
vn -0.9872 0.1593 0.0053
vn -0.9575 0.1062 -0.2683
vn -0.9088 0.2666 0.3208
vn -0.3741 0.5860 0.7188
vn -0.9095 -0.0192 -0.4152
vn -0.9467 -0.0027 -0.3221
vn -0.9994 0.0251 -0.0233
vn -0.5550 0.2351 -0.7979
vn -0.6081 0.3604 -0.7074
vn -0.6070 0.1053 -0.7877
vn -0.5247 -0.0250 -0.8509
vn 0.9775 -0.2097 0.0244
vn 0.9703 -0.1663 -0.1756
vn 0.9648 -0.0372 -0.2605
vn 0.9929 -0.0872 -0.0814
vn 0.9393 0.0409 -0.3408
vn 0.9744 -0.0438 -0.2203
vn 0.8059 0.0269 -0.5915
vn 0.8291 0.0561 -0.5563
vn 0.8568 -0.1174 -0.5021
vn 0.3482 -0.1774 0.9205
vn 0.5397 -0.2771 0.7950
vn 0.5881 0.0123 0.8087
vn 0.3639 0.1664 0.9164
vn 0.7348 0.2907 0.6128
vn 0.4465 0.4849 0.7520
vn 0.7018 -0.1463 0.6972
vn 0.9153 0.0586 0.3986
vn 0.6368 -0.3886 0.6660
vn 0.5024 0.7828 0.3672
vn 0.5505 0.6600 0.5112
vn 0.6819 0.5448 0.4880
vn 0.7116 0.5569 0.4285
vn 0.9666 0.0613 0.2487
vn 0.9779 0.1432 0.1524
vn 0.9909 0.0535 0.1232
vn 0.9951 -0.0523 0.0840
vn 0.9616 -0.1481 0.2311
vn 0.8904 -0.0239 0.4545
vn 0.5960 0.5422 0.5923
vn 0.0531 0.5359 0.8426
vn 0.0547 0.5280 0.8475
vn 0.0622 0.4896 0.8697
vn 0.9359 -0.1798 0.3029
vn 0.8659 -0.0145 0.4999
vn 0.9448 -0.2944 0.1440
vn 0.9283 -0.3690 0.0451
vn 0.9854 -0.1582 0.0632
vn 0.9848 -0.1170 0.1283
vn 0.9866 -0.1628 -0.0093
vn 0.9290 -0.3701 -0.0084
vn 0.6902 0.3338 -0.6420
vn 0.6693 0.5056 -0.5445
vn 0.8668 0.1963 -0.4584
vn 0.7931 0.1135 -0.5985
vn 0.8388 0.1999 -0.5063
vn 0.5203 0.7098 -0.4748
vn 0.9521 -0.3008 0.0550
vn 0.9899 -0.1414 -0.0114
vn 0.9880 -0.1504 -0.0362
vn 0.5571 -0.8288 -0.0512
vn 0.4182 -0.9026 0.1022
vn 0.3980 -0.9087 0.1257
vn 0.7242 -0.6891 -0.0269
vn 0.9014 -0.4201 0.1052
vn 0.9495 -0.2993 0.0940
vn 0.3081 -0.9247 0.2238
vn 0.7464 -0.6645 -0.0357
vn 0.6547 -0.7496 -0.0977
vn 0.7896 -0.6124 -0.0376
vn 0.8550 -0.5116 0.0853
vn 0.3359 -0.6567 0.6752
vn 0.4613 -0.6558 0.5976
vn 0.5001 -0.5262 0.6878
vn 0.3484 -0.4919 0.7979
vn 0.5627 -0.5983 0.5705
vn 0.5318 -0.6605 0.5300
vn -0.2827 -0.8490 0.4464
vn 0.9462 -0.2858 -0.1514
vn 0.9103 -0.2976 -0.2877
vn -0.9608 -0.2291 0.1560
vn -0.9168 -0.2560 0.3065
vn -0.8803 -0.2115 0.4247
vn -0.8774 -0.4201 0.2316
vn -0.3545 -0.9205 -0.1643
vn -0.8015 -0.5024 -0.3243
vn -0.8066 -0.5467 -0.2248
vn -0.5445 -0.6299 -0.5538
vn -0.7583 -0.4305 -0.4895
vn -0.0457 -0.9773 0.2070
vn -0.0110 -0.9770 0.2130
vn -0.2232 -0.9594 0.1727
vn 0.1848 -0.9527 0.2412
vn -0.9585 -0.2682 -0.0969
vn -0.8244 -0.4756 -0.3070
vn -0.8435 -0.4142 -0.3419
vn -0.9364 -0.3074 -0.1691
vn -0.8429 -0.3898 -0.3709
vn -0.8873 -0.4224 -0.1852
vn -0.7135 -0.5917 -0.3751
vn -0.9775 -0.1996 0.0679
vn -0.9258 -0.1494 0.3474
vn -0.9124 -0.4043 0.0637
vn -0.9027 -0.2772 0.3292
vn 0.2915 -0.7324 0.6153
vn 0.2944 -0.7053 0.6449
vn 0.2810 -0.5137 0.8106
vn 0.2315 -0.3128 0.9212
vn 0.2566 -0.1362 0.9569
vn 0.2307 -0.1321 0.9640
vn 0.5226 0.6164 -0.5890
vn 0.4176 0.7779 -0.4695
vn 0.4742 0.7205 -0.5059
vn 0.5498 0.5515 -0.6273
vn 0.4235 0.8497 -0.3141
vn 0.3863 0.8786 -0.2807
vn 0.3908 0.9203 -0.0173
vn 0.4120 0.9107 -0.0283
vn 0.3618 0.9316 -0.0331
vn 0.3991 0.8688 0.2932
vn 0.3713 0.8786 0.3002
vn 0.3042 0.7361 0.6047
vn 0.3447 0.7358 0.5829
vn 0.2827 0.5324 0.7979
vn 0.2450 0.5376 0.8068
vn 0.2580 0.2324 0.9378
vn 0.2296 0.2523 0.9400
vn -0.3094 -0.4424 -0.8417
vn -0.6102 -0.3810 -0.6946
vn -0.2189 -0.3139 -0.9239
vn -0.3074 -0.2921 -0.9056
vn -0.1145 -0.5231 -0.8446
vn -0.0283 -0.3504 -0.9362
vn -0.2061 -0.6903 -0.6936
vn -0.8208 -0.4473 -0.3553
vn -0.8422 -0.5302 -0.0982
vn -0.8359 -0.4783 -0.2692
vn -0.8352 -0.5478 -0.0487
vn -0.7814 -0.4165 -0.4647
vn -0.7714 -0.5707 0.2816
vn -0.7334 -0.3731 0.5682
vn -0.6381 -0.5384 0.5504
vn -0.6274 -0.5553 0.5459
vn -0.6150 -0.5739 0.5407
vn -0.7653 -0.5986 0.2368
vn 0.6178 0.1358 -0.7745
vn 0.6689 0.1755 -0.7223
vn 0.6038 -0.0248 -0.7968
vn 0.5241 0.0591 -0.8496
vn 0.3791 -0.0197 -0.9251
vn 0.3931 -0.1144 -0.9123
vn 0.3735 -0.1883 -0.9083
vn 0.3147 -0.2366 -0.9192
vn -0.0231 0.0259 0.9994
vn -0.1450 0.0272 0.9891
vn -0.6831 -0.1416 0.7165
vn -0.1470 -0.0380 0.9884
vn -0.3389 -0.1495 0.9289
vn 0.6655 0.0355 -0.7455
vn 0.1143 -0.2489 0.9618
vn 0.1393 -0.1226 0.9826
vn 0.0027 -0.1288 0.9917
vn 0.0159 -0.2298 0.9731
vn -0.0827 0.2600 -0.9621
vn 0.0828 0.1983 -0.9766
vn -0.0665 0.2399 -0.9685
vn -0.0620 0.2978 -0.9526
vn 0.8620 -0.2618 -0.4341
vn 0.7565 -0.1559 -0.6351
vn 0.7758 -0.0858 -0.6251
vn 0.8715 -0.1976 -0.4488
vn 0.8759 -0.1293 -0.4649
vn 0.8370 -0.0277 -0.5464
vn 0.8430 0.0174 -0.5376
vn 0.8425 0.0400 -0.5373
vn 0.3251 0.2703 -0.9062
vn 0.1837 0.2137 -0.9595
vn 0.9243 -0.1915 -0.3301
vn 0.9609 -0.2737 -0.0411
vn 0.9442 -0.3235 -0.0623
vn 0.5342 0.3625 -0.7637
vn 0.8052 -0.1328 -0.5779
vn -0.0569 0.3068 -0.9501
vn 0.2831 0.9327 0.2235
vn 0.2665 0.9634 -0.0272
vn 0.2314 0.9303 -0.2845
vn -0.7671 0.6363 0.0821
vn -0.8606 0.5051 0.0651
vn -0.8302 0.5305 -0.1709
vn -0.7781 0.6027 -0.1767
vn -0.7149 0.6302 0.3029
vn -0.7630 0.5736 0.2981
vn 0.5208 0.3001 -0.7992
vn 0.4576 0.2989 -0.8374
vn 0.9234 0.0605 -0.3791
vn 0.9053 0.0433 -0.4226
vn 0.9488 0.0886 -0.3031
vn 0.9444 0.0670 -0.3219
vn 0.5775 0.2997 -0.7594
vn 0.9591 -0.2634 -0.1036
vn 0.9467 -0.1342 0.2928
vn 0.9460 -0.0860 0.3126
vn 0.9851 -0.1626 -0.0552
vn 0.9512 -0.1008 -0.2918
vn 0.9317 -0.1596 -0.3264
vn -0.8668 0.4069 0.2882
vn -0.9220 0.3862 0.0275
vn -0.9108 0.3712 -0.1809
vn -0.8942 0.3492 -0.2800
vn -0.9216 0.3529 -0.1615
vn -0.9284 0.3530 -0.1159
vn -0.9301 0.3669 0.0144
vn -0.8687 0.3744 0.3242
vn 0.8276 0.0637 0.5576
vn 0.0798 0.4718 0.8781
vn 0.1663 0.4327 0.8860
vn 0.3252 0.5455 0.7724
vn 0.2343 0.4656 0.8534
vn 0.8957 0.1911 0.4016
vn 0.8773 0.2600 0.4035
vn 0.9072 0.0988 0.4090
vn 0.7481 0.6448 0.1569
vn 0.9575 0.1062 -0.2683
vn 0.9872 0.1593 0.0053
vn 0.9088 0.2666 0.3208
vn 0.3741 0.5860 0.7188
vn 0.9467 -0.0027 -0.3221
vn 0.9095 -0.0192 -0.4152
vn 0.9994 0.0251 -0.0233
vn 0.5550 0.2351 -0.7979
vn 0.6081 0.3604 -0.7074
vn 0.6070 0.1053 -0.7877
vn 0.5247 -0.0250 -0.8509
vt 0.500000 0.144988
vt 0.562066 0.144988
vt 0.559992 0.196784
vt 0.499344 0.195359
vt 0.625000 0.144988
vt 0.625000 0.197494
vt 0.625000 0.250000
vt 0.541271 0.243824
vt 0.495833 0.231289
vt 0.500000 0.961197
vt 0.562500 0.961803
vt 0.562500 0.983475
vt 0.500000 0.983323
vt 0.625000 0.968463
vt 0.625000 0.984232
vt 0.625000 1.000000
vt 0.562500 1.000000
vt 0.500000 1.000000
vt 0.838232 0.702220
vt 0.858802 0.714634
vt 0.858529 0.730423
vt 0.837020 0.729347
vt 0.875000 0.710024
vt 0.875000 0.730012
vt 0.875000 0.750000
vt 0.859232 0.750000
vt 0.843463 0.750000
vt 0.858802 0.714634
vt 0.859690 0.708613
vt 0.875000 0.710024
vt 0.847636 0.693551
vt 0.848749 0.692601
vt 0.859952 0.707846
vt 0.500000 0.000000
vt 0.562500 0.000000
vt 0.562500 0.021117
vt 0.500000 0.021343
vt 0.625000 0.000000
vt 0.625000 0.019988
vt 0.625000 0.039976
vt 0.562066 0.049912
vt 0.500000 0.050815
vt 0.843463 0.500000
vt 0.859231 0.500000
vt 0.858529 0.551048
vt 0.837020 0.552142
vt 0.875000 0.500000
vt 0.875000 0.552506
vt 0.875000 0.605012
vt 0.858802 0.590792
vt 0.838231 0.605012
vt 0.560764 0.093611
vt 0.500000 0.093837
vt 0.607639 0.092708
vt 0.375000 0.039976
vt 0.437500 0.049912
vt 0.437500 0.093611
vt 0.375000 0.092482
vt 0.437500 0.144988
vt 0.375000 0.144988
vt 0.375000 0.000000
vt 0.437500 0.000000
vt 0.437500 0.021117
vt 0.375000 0.019988
vt 0.375000 0.968463
vt 0.437500 0.961803
vt 0.437500 0.983475
vt 0.375000 0.984232
vt 0.437500 1.000000
vt 0.375000 1.000000
vt 0.438465 0.196784
vt 0.375000 0.197494
vt 0.446653 0.243824
vt 0.375000 0.250000
vt 0.125000 0.710024
vt 0.141677 0.700088
vt 0.141525 0.728883
vt 0.125000 0.730012
vt 0.163803 0.699185
vt 0.163198 0.728657
vt 0.156537 0.750000
vt 0.140769 0.750000
vt 0.125000 0.750000
vt 0.125000 0.605012
vt 0.141681 0.605013
vt 0.141677 0.656389
vt 0.125000 0.657518
vt 0.163834 0.605015
vt 0.163807 0.656164
vt 0.125000 0.500000
vt 0.140769 0.500000
vt 0.141534 0.552507
vt 0.125000 0.552506
vt 0.156537 0.500000
vt 0.162760 0.552512
vt 0.375000 0.893330
vt 0.437500 0.893330
vt 0.437500 0.930140
vt 0.375000 0.930897
vt 0.500000 0.893330
vt 0.500000 0.929988
vt 0.768330 0.500000
vt 0.805897 0.500000
vt 0.805194 0.552506
vt 0.768330 0.552506
vt 0.805097 0.605012
vt 0.768330 0.605012
vt 0.804659 0.656470
vt 0.768330 0.657518
vt 0.832472 0.656714
vt 0.805097 0.700413
vt 0.768330 0.710024
vt 0.805194 0.728964
vt 0.768330 0.730012
vt 0.805897 0.750000
vt 0.768330 0.750000
vt 0.562500 0.893330
vt 0.562500 0.930140
vt 0.625000 0.893330
vt 0.625000 0.930897
vt 0.195012 0.700088
vt 0.194860 0.728883
vt 0.231670 0.710024
vt 0.231670 0.730012
vt 0.231670 0.750000
vt 0.194103 0.750000
vt 0.195077 0.605749
vt 0.195020 0.656390
vt 0.231670 0.605012
vt 0.231670 0.657518
vt 0.176012 0.500000
vt 0.194673 0.552879
vt 0.162760 0.552512
vt 0.195487 0.500000
vt 0.210614 0.530185
vt 0.176012 0.500000
vt 0.231670 0.552620
vt 0.231670 0.578816
vt 0.210614 0.530185
vt 0.195077 0.605748
vt 0.162760 0.552512
vt 0.526612 0.304291
vt 0.514571 0.309002
vt 0.474738 0.295239
vt 0.546281 0.299318
vt 0.508755 0.315025
vt 0.507515 0.325215
vt 0.500000 0.356670
vt 0.437500 0.356670
vt 0.375000 0.356670
vt 0.375000 0.338578
vt 0.375000 0.320487
vt 0.375000 0.301012
vt 0.375000 0.281537
vt 0.375000 0.265769
vt 0.375000 0.301012
vt 0.446653 0.243824
vt 0.625000 0.265769
vt 0.541271 0.243824
vt 0.625000 0.281537
vt 0.210614 0.530185
vt 0.219060 0.518267
vt 0.231670 0.526310
vt 0.213578 0.500000
vt 0.231670 0.500000
vt 0.848684 0.622593
vt 0.859814 0.607210
vt 0.859432 0.608060
vt 0.848536 0.622619
vt 0.875000 0.605012
vt 0.864758 0.614800
vt 0.858646 0.619476
vt 0.853440 0.616802
vt 0.848467 0.623297
vt 0.848536 0.622619
vt 0.853440 0.616802
vt 0.607639 0.092708
vt 0.623264 0.092442
vt 0.625000 0.144988
vt 0.625000 0.039976
vt 0.625000 0.092163
vt 0.859673 0.605378
vt 0.847628 0.620701
vt 0.832472 0.656714
vt 0.843321 0.657396
vt 0.844776 0.657695
vt 0.851652 0.635578
vt 0.846612 0.641355
vt 0.858761 0.635547
vt 0.859189 0.661084
vt 0.851815 0.660437
vt 0.847389 0.659706
vt 0.625000 0.091020
vt 0.625000 0.092163
vt 0.625000 0.062645
vt 0.625000 0.085315
vt 0.625000 0.115151
vt 0.848749 0.692601
vt 0.844776 0.657695
vt 0.844808 0.658250
vt 0.848762 0.693032
vt 0.848684 0.622593
vt 0.848536 0.622619
vt 0.844776 0.657695
vt 0.846855 0.676765
vt 0.846612 0.641355
vt 0.848931 0.693305
vt 0.846855 0.676765
vt 0.859952 0.707846
vt 0.859952 0.707297
vt 0.848749 0.692601
vt 0.848762 0.693032
vt 0.859952 0.707846
vt 0.854313 0.699937
vt 0.859719 0.698235
vt 0.865570 0.702270
vt 0.854313 0.699937
vt 0.865570 0.702270
vt 0.852284 0.683709
vt 0.859604 0.684731
vt 0.858761 0.635547
vt 0.866563 0.635356
vt 0.867087 0.661889
vt 0.875000 0.634849
vt 0.875000 0.664685
vt 0.859604 0.684731
vt 0.867162 0.685756
vt 0.875000 0.687355
vt 0.546281 0.299318
vt 0.555847 0.326662
vt 0.514571 0.309002
vt 0.625000 0.319103
vt 0.546281 0.299318
vt 0.625000 0.356670
vt 0.604428 0.356670
vt 0.583855 0.356670
vt 0.541928 0.356670
s 1
usemtl Scifi_Panels.Helmet.001
f 12/1/1 67/2/2 134/3/3 71/4/4
f 67/2/2 7/5/5 52/6/6 134/3/3
f 134/3/3 52/6/6 4/7/7 65/8/8
f 71/4/4 134/3/3 65/8/8 10/9/9
f 17/10/10 89/11/11 135/12/12 70/13/13
f 89/11/11 14/14/14 55/15/15 135/12/12
f 135/12/12 55/15/15 2/16/16 51/17/17
f 70/13/13 135/12/12 51/17/17 9/18/18
f 20/19/19 79/20/20 136/21/21 88/22/22
f 79/20/23 6/23/24 57/24/25 136/21/26
f 136/21/26 57/24/25 2/25/16 55/26/15
f 88/22/22 136/21/21 55/26/15 14/27/14
f 6/23/24 79/28/23 137/29/27 115/30/28
f 79/28/20 20/19/19 114/31/29 137/29/29
f 137/29/30 114/31/30 39/32/31 111/33/32
f 115/30/28 137/29/27 111/33/33 37/23/34
f 9/34/35 51/35/36 138/36/37 69/37/38
f 51/35/36 2/38/16 57/39/25 138/36/37
f 138/36/37 57/39/25 6/40/24 66/41/39
f 69/37/38 138/36/37 66/41/39 11/42/40
f 18/43/41 77/44/42 139/45/43 86/46/44
f 77/44/42 4/47/7 52/48/6 139/45/43
f 139/45/43 52/48/6 7/49/5 80/50/45
f 86/46/44 139/45/43 80/50/45 21/51/46
f 11/42/40 66/41/39 140/52/47 68/53/48
f 66/41/39 6/40/24 60/54/49 140/52/47
f 140/52/47 60/54/49 7/5/5 67/2/2
f 68/53/48 140/52/47 67/2/2 12/1/1
f 5/55/50 59/56/51 141/57/52 56/58/53
f 59/56/51 11/42/40 68/53/48 141/57/54
f 141/57/54 68/53/48 12/1/1 63/59/55
f 56/58/53 141/57/52 63/59/56 8/60/56
f 1/61/57 64/62/58 142/63/59 50/64/60
f 64/62/58 9/34/35 69/37/38 142/63/59
f 142/63/59 69/37/38 11/42/40 59/56/51
f 50/64/60 142/63/59 59/56/51 5/55/50
f 19/65/61 85/66/62 143/67/63 78/68/64
f 85/66/62 17/10/10 70/13/13 143/67/63
f 143/67/63 70/13/13 9/18/18 64/69/65
f 78/68/64 143/67/63 64/69/65 1/70/66
f 8/60/67 63/59/67 144/71/67 61/72/67
f 63/59/55 12/1/1 71/4/4 144/71/68
f 144/71/68 71/4/4 10/9/9 53/73/69
f 61/72/70 144/71/71 53/73/72 3/74/73
f 5/75/74 58/76/74 145/77/74 50/78/74
f 58/76/75 15/79/76 82/80/77 145/77/78
f 145/77/79 82/80/80 19/81/80 78/82/81
f 50/78/82 145/77/79 78/82/81 1/83/82
f 8/84/83 62/85/84 146/86/85 56/87/86
f 62/85/84 16/88/87 83/89/88 146/86/85
f 146/86/85 83/89/88 15/79/76 58/76/75
f 56/87/86 146/86/85 58/76/75 5/75/89
f 3/90/73 54/91/90 147/92/91 61/93/70
f 54/91/90 13/94/92 84/95/93 147/92/91
f 147/92/91 84/95/93 16/88/87 62/85/84
f 61/93/70 147/92/91 62/85/84 8/84/83
f 24/96/94 99/97/94 148/98/95 91/99/96
f 99/97/97 32/100/98 76/101/99 148/98/95
f 148/98/95 76/101/99 17/10/10 85/66/62
f 91/99/96 148/98/95 85/66/62 19/65/61
f 23/102/100 90/103/101 149/104/102 98/105/103
f 90/103/101 18/43/41 86/46/44 149/104/102
f 149/104/102 86/46/44 21/51/46 93/106/104
f 98/105/103 149/104/102 93/106/104 26/107/105
f 26/107/105 93/106/104 150/108/106 97/109/107
f 93/106/104 21/51/46 87/110/108 150/108/106
f 150/108/106 87/110/108 20/19/19 92/111/109
f 97/109/107 150/108/106 92/111/109 25/112/110
f 25/112/110 92/111/109 151/113/111 96/114/112
f 92/111/109 20/19/19 88/22/22 151/113/111
f 151/113/111 88/22/22 14/27/14 73/115/113
f 96/114/112 151/113/111 73/115/113 29/116/114
f 32/100/98 95/117/115 152/118/116 76/101/99
f 95/117/115 29/119/114 73/120/113 152/118/116
f 152/118/116 73/120/113 14/14/14 89/11/11
f 76/101/99 152/118/116 89/11/11 17/10/10
f 15/79/76 74/121/117 153/122/118 82/80/77
f 74/121/117 30/123/119 101/124/120 153/122/118
f 153/122/118 101/124/120 24/125/121 91/126/122
f 82/80/77 153/122/118 91/126/122 19/81/123
f 16/88/87 75/127/124 154/128/125 83/89/88
f 75/127/124 31/129/126 102/130/127 154/128/125
f 154/128/125 102/130/127 30/123/128 74/121/117
f 83/89/88 154/128/125 74/121/117 15/79/76
f 13/94/92 72/131/129 155/132/130 84/133/93
f 35/134/131 109/135/132 155/132/130 72/136/129
f 33/137/133 103/138/134 155/132/130 109/139/132
f 31/129/126 75/140/124 155/132/130 103/138/134
f 16/88/87 84/141/93 155/132/130 75/127/124
f 22/142/135 108/143/136 156/144/137 81/145/138
f 36/146/139 94/147/140 156/144/137 108/143/136
f 27/148/141 104/149/142 156/144/137 94/147/140
f 28/150/143 107/151/144 156/144/145 104/149/146
f 35/152/147 72/153/129 156/144/145 107/151/144
f 13/154/92 54/155/90 156/144/145 72/156/129
f 3/74/73 53/73/72 156/144/145 54/155/90
f 10/9/9 65/8/8 156/144/137 53/157/148
f 4/7/7 77/158/42 156/144/137 65/159/8
f 18/160/41 81/145/138 156/144/137 77/158/42
f 33/137/149 109/161/150 157/162/151 105/163/152
f 35/134/147 107/164/144 157/162/151 109/139/150
f 28/165/143 105/163/152 157/162/151 107/164/144
f 40/166/153 112/167/154 158/168/155 123/169/156
f 38/49/157 122/170/158 158/168/159 112/167/160
f 42/49/161 129/171/162 158/168/159 122/170/158
f 47/172/163 120/173/164 158/168/159 129/171/162
f 44/174/165 123/175/156 158/168/155 120/176/166
f 7/5/5 60/177/49 159/178/167 116/179/168
f 60/177/49 6/40/24 115/180/28 159/178/167
f 159/178/167 115/180/28 37/40/34 110/181/169
f 116/179/168 159/178/167 110/181/169 38/5/157
f 21/51/46 80/50/45 160/182/170 117/183/170
f 80/50/45 7/49/5 116/170/168 160/182/171
f 160/182/171 116/170/168 38/49/157 112/167/160
f 117/183/172 160/182/172 112/167/154 40/166/153
f 20/19/19 87/184/108 161/185/173 114/31/174
f 87/184/108 21/51/46 117/183/175 161/185/173
f 161/185/176 117/183/177 40/166/178 113/186/179
f 114/31/180 161/185/176 113/186/179 39/32/181
f 44/174/165 120/176/166 162/187/182 126/188/183
f 120/176/164 47/172/163 132/189/184 162/187/185
f 162/187/185 132/189/184 49/190/186 131/191/187
f 126/188/183 162/187/182 131/191/188 45/192/188
f 38/5/157 110/181/169 163/193/189 122/179/158
f 37/40/34 124/180/190 163/193/189 110/194/169
f 41/180/191 127/195/192 163/193/189 124/180/190
f 46/196/193 118/197/194 163/193/189 127/195/192
f 42/179/161 122/179/158 163/193/189 118/197/194
f 39/198/181 113/199/179 164/200/195 125/201/196
f 40/202/178 123/203/197 164/200/195 113/204/179
f 44/174/198 126/188/199 164/200/195 123/175/197
f 45/192/200 121/205/201 164/200/195 126/206/199
f 43/207/202 125/201/196 164/200/195 121/208/201
f 37/23/34 111/209/33 165/210/203 124/30/190
f 39/211/31 125/212/204 165/210/205 111/213/32
f 43/207/206 119/214/207 165/210/205 125/201/204
f 48/215/208 130/216/209 165/210/203 119/217/210
f 41/23/191 124/30/190 165/210/203 130/218/209
f 45/192/211 131/191/211 166/219/211 121/208/211
f 131/191/187 49/190/186 133/220/212 166/219/213
f 166/219/214 133/220/212 48/215/208 119/214/210
f 121/208/215 166/219/215 119/214/207 43/207/206
f 49/190/186 132/221/184 167/222/216 128/223/217
f 132/221/184 47/172/163 129/171/162 167/222/216
f 167/222/216 129/171/162 42/49/161 118/224/194
f 128/223/217 167/222/216 118/224/194 46/225/193
f 48/215/208 133/226/212 168/227/218 130/216/209
f 133/226/212 49/190/186 128/223/217 168/227/218
f 168/227/218 128/223/217 46/225/193 127/228/192
f 130/216/209 168/227/218 127/228/192 41/23/191
f 22/142/135 81/229/138 169/230/219 108/231/136
f 18/160/41 90/232/101 169/230/219 81/233/138
f 23/234/100 106/235/220 169/230/219 90/232/101
f 34/236/221 100/237/222 169/230/219 106/235/220
f 27/148/141 94/147/140 169/230/219 100/237/222
f 36/146/139 108/231/136 169/230/219 94/147/140
f 181/1/223 240/4/224 303/3/225 236/2/226
f 236/2/226 303/3/225 221/6/227 176/5/228
f 303/3/225 234/8/229 173/7/230 221/6/227
f 240/4/224 179/9/231 234/8/229 303/3/225
f 186/10/232 239/13/233 304/12/234 258/11/235
f 258/11/235 304/12/234 224/15/236 183/14/237
f 304/12/234 220/17/238 171/16/239 224/15/236
f 239/13/233 178/18/240 220/17/238 304/12/234
f 189/19/241 257/22/242 305/21/243 248/20/244
f 248/20/245 305/21/246 226/24/247 175/23/248
f 305/21/246 224/26/236 171/25/239 226/24/247
f 257/22/242 183/27/237 224/26/236 305/21/243
f 175/23/248 284/30/249 306/29/250 248/28/245
f 248/28/244 306/29/251 283/31/251 189/19/241
f 306/29/252 280/33/253 208/32/254 283/31/252
f 284/30/249 206/23/255 280/33/256 306/29/250
f 178/34/257 238/37/258 307/36/259 220/35/260
f 220/35/260 307/36/259 226/39/247 171/38/239
f 307/36/259 235/41/261 175/40/248 226/39/247
f 238/37/258 180/42/262 235/41/261 307/36/259
f 187/43/263 255/46/264 308/45/265 246/44/266
f 246/44/266 308/45/265 221/48/227 173/47/230
f 308/45/265 249/50/267 176/49/228 221/48/227
f 255/46/264 190/51/268 249/50/267 308/45/265
f 180/42/262 237/53/269 309/52/270 235/41/261
f 235/41/261 309/52/270 229/54/271 175/40/248
f 309/52/270 236/2/226 176/5/228 229/54/271
f 237/53/269 181/1/223 236/2/226 309/52/270
f 174/55/272 225/58/273 310/57/274 228/56/275
f 228/56/275 310/57/276 237/53/269 180/42/262
f 310/57/276 232/59/277 181/1/223 237/53/269
f 225/58/273 177/60/278 232/59/278 310/57/274
f 170/61/279 219/64/280 311/63/281 233/62/282
f 233/62/282 311/63/281 238/37/258 178/34/257
f 311/63/281 228/56/275 180/42/262 238/37/258
f 219/64/280 174/55/272 228/56/275 311/63/281
f 188/65/283 247/68/284 312/67/285 254/66/286
f 254/66/286 312/67/285 239/13/233 186/10/232
f 312/67/285 233/69/287 178/18/240 239/13/233
f 247/68/284 170/70/288 233/69/287 312/67/285
f 177/60/289 230/72/289 313/71/289 232/59/289
f 232/59/277 313/71/290 240/4/224 181/1/223
f 313/71/290 222/73/291 179/9/231 240/4/224
f 230/72/292 172/74/293 222/73/294 313/71/295
f 174/75/296 219/78/296 314/77/296 227/76/296
f 227/76/297 314/77/298 251/80/299 184/79/300
f 314/77/301 247/82/302 188/81/303 251/80/303
f 219/78/304 170/83/304 247/82/302 314/77/301
f 177/84/305 225/87/306 315/86/307 231/85/308
f 231/85/308 315/86/307 252/89/309 185/88/310
f 315/86/307 227/76/297 184/79/300 252/89/309
f 225/87/306 174/75/311 227/76/297 315/86/307
f 172/90/293 230/93/292 316/92/312 223/91/313
f 223/91/313 316/92/312 253/95/314 182/94/315
f 316/92/312 231/85/308 185/88/310 253/95/314
f 230/93/292 177/84/305 231/85/308 316/92/312
f 193/96/316 260/99/317 317/98/318 268/97/316
f 268/97/319 317/98/318 245/101/320 201/100/321
f 317/98/318 254/66/286 186/10/232 245/101/320
f 260/99/317 188/65/283 254/66/286 317/98/318
f 192/102/322 267/105/323 318/104/324 259/103/325
f 259/103/325 318/104/324 255/46/264 187/43/263
f 318/104/324 262/106/326 190/51/268 255/46/264
f 267/105/323 195/107/327 262/106/326 318/104/324
f 195/107/327 266/109/328 319/108/329 262/106/326
f 262/106/326 319/108/329 256/110/330 190/51/268
f 319/108/329 261/111/331 189/19/241 256/110/330
f 266/109/328 194/112/332 261/111/331 319/108/329
f 194/112/332 265/114/333 320/113/334 261/111/331
f 261/111/331 320/113/334 257/22/242 189/19/241
f 320/113/334 242/115/335 183/27/237 257/22/242
f 265/114/333 198/116/336 242/115/335 320/113/334
f 201/100/321 245/101/320 321/118/337 264/117/338
f 264/117/338 321/118/337 242/120/335 198/119/336
f 321/118/337 258/11/235 183/14/237 242/120/335
f 245/101/320 186/10/232 258/11/235 321/118/337
f 184/79/300 251/80/299 322/122/339 243/121/340
f 243/121/340 322/122/339 270/124/341 199/123/342
f 322/122/339 260/126/343 193/125/344 270/124/341
f 251/80/299 188/81/345 260/126/343 322/122/339
f 185/88/310 252/89/309 323/128/346 244/127/347
f 244/127/347 323/128/346 271/130/348 200/129/349
f 323/128/346 243/121/340 199/123/350 271/130/348
f 252/89/309 184/79/300 243/121/340 323/128/346
f 182/94/315 253/133/314 324/132/351 241/131/352
f 204/134/353 241/136/352 324/132/351 278/135/354
f 202/137/355 278/139/354 324/132/351 272/138/356
f 200/129/349 272/138/356 324/132/351 244/140/347
f 185/88/310 244/127/347 324/132/351 253/141/314
f 191/142/357 250/145/358 325/144/359 277/143/360
f 205/146/361 277/143/360 325/144/359 263/147/362
f 196/148/363 263/147/362 325/144/359 273/149/364
f 197/150/365 273/149/366 325/144/367 276/151/368
f 204/152/369 276/151/368 325/144/367 241/153/352
f 182/154/315 241/156/352 325/144/367 223/155/313
f 172/74/293 223/155/313 325/144/367 222/73/294
f 179/9/231 222/157/370 325/144/359 234/8/229
f 173/7/230 234/159/229 325/144/359 246/158/266
f 187/160/263 246/158/266 325/144/359 250/145/358
f 202/137/371 274/163/372 326/162/373 278/161/374
f 204/134/369 278/139/374 326/162/373 276/164/368
f 197/165/365 276/164/368 326/162/373 274/163/372
f 209/166/375 292/169/376 327/168/377 281/167/378
f 207/49/379 281/167/380 327/168/381 291/170/382
f 211/49/383 291/170/382 327/168/381 298/171/384
f 216/172/385 298/171/384 327/168/381 289/173/386
f 213/174/387 289/176/388 327/168/377 292/175/376
f 176/5/228 285/179/389 328/178/390 229/177/271
f 229/177/271 328/178/390 284/180/249 175/40/248
f 328/178/390 279/181/391 206/40/255 284/180/249
f 285/179/389 207/5/379 279/181/391 328/178/390
f 190/51/268 286/183/392 329/182/392 249/50/267
f 249/50/267 329/182/393 285/170/389 176/49/228
f 329/182/393 281/167/380 207/49/379 285/170/389
f 286/183/394 209/166/375 281/167/378 329/182/394
f 189/19/241 283/31/395 330/185/396 256/184/330
f 256/184/330 330/185/396 286/183/397 190/51/268
f 330/185/398 282/186/399 209/166/400 286/183/401
f 283/31/402 208/32/403 282/186/399 330/185/398
f 213/174/387 295/188/404 331/187/405 289/176/388
f 289/176/386 331/187/406 301/189/407 216/172/385
f 331/187/406 300/191/408 218/190/409 301/189/407
f 295/188/404 214/192/410 300/191/410 331/187/405
f 207/5/379 291/179/382 332/193/411 279/181/391
f 206/40/255 279/194/391 332/193/411 293/180/412
f 210/180/413 293/180/412 332/193/411 296/195/414
f 215/196/415 296/195/414 332/193/411 287/197/416
f 211/179/383 287/197/416 332/193/411 291/179/382
f 208/198/403 294/201/417 333/200/418 282/199/399
f 209/202/400 282/204/399 333/200/418 292/203/419
f 213/174/420 292/175/419 333/200/418 295/188/421
f 214/192/422 295/206/421 333/200/418 290/205/423
f 212/207/424 290/208/423 333/200/418 294/201/417
f 206/23/255 293/30/412 334/210/425 280/209/256
f 208/211/254 280/213/253 334/210/426 294/212/427
f 212/207/428 294/201/427 334/210/426 288/214/429
f 217/215/430 288/217/431 334/210/425 299/216/432
f 210/23/413 299/218/432 334/210/425 293/30/412
f 214/192/433 290/208/433 335/219/433 300/191/433
f 300/191/408 335/219/434 302/220/435 218/190/409
f 335/219/436 288/214/431 217/215/430 302/220/435
f 290/208/437 212/207/428 288/214/429 335/219/437
f 218/190/409 297/223/438 336/222/439 301/221/407
f 301/221/407 336/222/439 298/171/384 216/172/385
f 336/222/439 287/224/416 211/49/383 298/171/384
f 297/223/438 215/225/415 287/224/416 336/222/439
f 217/215/430 299/216/432 337/227/440 302/226/435
f 302/226/435 337/227/440 297/223/438 218/190/409
f 337/227/440 296/228/414 215/225/415 297/223/438
f 299/216/432 210/23/413 296/228/414 337/227/440
f 191/142/357 277/231/360 338/230/441 250/229/358
f 187/160/263 250/233/358 338/230/441 259/232/325
f 192/234/322 259/232/325 338/230/441 275/235/442
f 203/236/443 275/235/442 338/230/441 269/237/444
f 196/148/363 269/237/444 338/230/441 263/147/362
f 205/146/361 263/147/362 338/230/441 277/231/360